<svg width="36" height="43" viewBox="0 0 36 43" fill="none" xmlns="http://www.w3.org/2000/svg">
<g opacity="0.25" filter="url(#filter0_f)">
<rect x="12" y="36" width="12" height="3" fill="#616B78"/>
</g>
<g clip-path="url(#clip0)">
<path d="M27.546 26.0461L18 35.5921L8.45401 26.0461C6.56601 24.1581 5.28028 21.7526 4.75939 19.1339C4.23851 16.5152 4.50586 13.8008 5.52765 11.334C6.54944 8.86719 8.27977 6.75878 10.4998 5.27539C12.7199 3.792 15.33 3.00024 18 3.00024C20.67 3.00024 23.2801 3.792 25.5002 5.27539C27.7202 6.75878 29.4506 8.86719 30.4724 11.334C31.4942 13.8008 31.7615 16.5152 31.2406 19.1339C30.7197 21.7526 29.434 24.1581 27.546 26.0461V26.0461ZM18 19.5001C18.7957 19.5001 19.5587 19.1841 20.1213 18.6214C20.6839 18.0588 21 17.2958 21 16.5001C21 15.7045 20.6839 14.9414 20.1213 14.3788C19.5587 13.8162 18.7957 13.5001 18 13.5001C17.2044 13.5001 16.4413 13.8162 15.8787 14.3788C15.3161 14.9414 15 15.7045 15 16.5001C15 17.2958 15.3161 18.0588 15.8787 18.6214C16.4413 19.1841 17.2044 19.5001 18 19.5001Z" fill="#3DD598" stroke="white" stroke-width="2"/>
</g>
<defs>
<filter id="filter0_f" x="8" y="32" width="20" height="11" filterUnits="userSpaceOnUse" color-interpolation-filters="sRGB">
<feFlood flood-opacity="0" result="BackgroundImageFix"/>
<feBlend mode="normal" in="SourceGraphic" in2="BackgroundImageFix" result="shape"/>
<feGaussianBlur stdDeviation="2" result="effect1_foregroundBlur"/>
</filter>
<clipPath id="clip0">
<rect width="36" height="36" fill="white"/>
</clipPath>
</defs>
</svg>
